<?xml version="1.0" encoding="UTF-8"?>
<svg width="18px" height="18px" viewBox="0 0 18 18" version="1.1" xmlns="http://www.w3.org/2000/svg" xmlns:xlink="http://www.w3.org/1999/xlink">
    <!-- Generator: Sketch 52.2 (67145) - http://www.bohemiancoding.com/sketch -->
    <title>icon-time</title>
    <desc>Created with Sketch.</desc>
    <g id="Page-1" stroke="none" stroke-width="1" fill="none" fill-rule="evenodd">
        <g id="Desktop" transform="translate(-79.000000, -686.000000)" fill="#000000">
            <g id="post" transform="translate(78.000000, 483.000000)">
                <g id="Group-6" transform="translate(0.000000, 198.000000)">
                    <g id="Group-4">
                        <g id="time" transform="translate(0.000000, 4.000000)">
                            <g id="icon-time">
                                <rect id="Rectangle" opacity="0" x="0" y="0" width="20" height="20"></rect>
                                <path d="M10,1.25 C5.175,1.25 1.25,5.175 1.25,10 C1.25,14.825 5.175,18.75 10,18.75 C14.825,18.75 18.75,14.825 18.75,10 C18.75,5.175 14.825,1.25 10,1.25 Z M10,17.494375 C5.8675,17.494375 2.505625,14.131875 2.505625,10 C2.505625,5.8675 5.8675,2.505625 10,2.505625 C14.131875,2.505625 17.494375,5.8675 17.494375,10 C17.494375,14.131875 14.131875,17.494375 10,17.494375 Z M13.124375,10 L10,10 L10,5.62625 C10,5.279375 9.721875,4.99875 9.375,4.99875 C9.028125,4.99875 8.75,5.28 8.75,5.62625 L8.75,10.625 C8.75,10.971875 9.02875,11.25 9.375,11.25 L13.124375,11.25 C13.47125,11.25 13.751875,10.971875 13.751875,10.625 C13.751875,10.278125 13.47125,10 13.124375,10 Z" fill-rule="nonzero"></path>
                            </g>
                        </g>
                    </g>
                </g>
            </g>
        </g>
    </g>
</svg>