<?xml version="1.0" encoding="UTF-8"?>
<svg width="16px" height="16px" viewBox="0 0 16 16" version="1.1" xmlns="http://www.w3.org/2000/svg" xmlns:xlink="http://www.w3.org/1999/xlink">
    <!-- Generator: Sketch 52.2 (67145) - http://www.bohemiancoding.com/sketch -->
    <title>折叠</title>
    <desc>Created with Sketch.</desc>
    <g id="Page-2" stroke="none" stroke-width="1" fill="none" fill-rule="evenodd">
        <g id="折叠">
            <g id="Group">
                <rect id="Rectangle" fill="#000000" opacity="0" x="0" y="0" width="16" height="16"></rect>
                <path d="M3.42217191,3.50711476 L12.7340781,3.50711476 L3.42217191,3.50711476 Z M12.7340781,3.92747922 L3.42217191,3.92747922 C3.18937426,3.92747922 3,3.71945888 3,3.46373961 C3,3.20802034 3.18937426,3 3.42217191,3 L12.7340781,3 C12.9668757,3 13.15625,3.20802034 13.15625,3.46373961 C13.15625,3.71945888 12.9668757,3.92747922 12.7340781,3.92747922 Z M3.42217191,7.73377004 L12.7340781,7.73377004 L3.42217191,7.73377004 Z M12.7340781,8.1541345 L3.42217191,8.1541345 C3.18937426,8.1541345 3,7.94611416 3,7.69039489 C3,7.43467562 3.18937426,7.22665529 3.42217191,7.22665529 L12.7340781,7.22665529 C12.9668757,7.22665529 13.15625,7.43467562 13.15625,7.69039489 C13.15625,7.94611416 12.9668757,8.1541345 12.7340781,8.1541345 Z M3.42217191,11.9604253 L12.7340781,11.9604253 L3.42217191,11.9604253 Z M12.7340781,12.3807898 L3.42217191,12.3807898 C3.18937426,12.3807898 3,12.1727694 3,11.9170502 C3,11.6613309 3.18937426,11.4533106 3.42217191,11.4533106 L12.7340781,11.4533106 C12.9668757,11.4533106 13.15625,11.6613309 13.15625,11.9170502 C13.15625,12.1727694 12.9668757,12.3807898 12.7340781,12.3807898 Z" id="Shape" fill="#222222" fill-rule="nonzero"></path>
            </g>
        </g>
    </g>
</svg>