<svg width="16" height="32" viewBox="0 0 16 32" fill="none" xmlns="http://www.w3.org/2000/svg">
<path fill-rule="evenodd" clip-rule="evenodd" d="M11.824 12.688L8 8.864L4.184 12.68C3.984 12.88 3.736 12.792 3.472 12.528C3.208 12.264 3.112 12.016 3.32 11.816L7.136 8L3.312 4.176C3.08 3.936 3.216 3.704 3.448 3.464C3.712 3.2 3.928 3.064 4.176 3.304L8 7.136L11.824 3.32C12.048 3.096 12.272 3.208 12.56 3.496C12.8 3.736 12.928 3.944 12.688 4.184L8.86401 8L12.68 11.816C12.92 12.056 12.816 12.264 12.552 12.536C12.288 12.808 12.024 12.888 11.824 12.688Z" fill="#2C2C2C"/>
<path d="M12.7341 19.9275H3.42217C3.18937 19.9275 3 19.7195 3 19.4637C3 19.208 3.18937 19 3.42217 19H12.7341C12.9669 19 13.1562 19.208 13.1562 19.4637C13.1562 19.7195 12.9669 19.9275 12.7341 19.9275ZM12.7341 24.1541H3.42217C3.18937 24.1541 3 23.9461 3 23.6904C3 23.4347 3.18937 23.2267 3.42217 23.2267H12.7341C12.9669 23.2267 13.1562 23.4347 13.1562 23.6904C13.1562 23.9461 12.9669 24.1541 12.7341 24.1541ZM12.7341 28.3808H3.42217C3.18937 28.3808 3 28.1728 3 27.9171C3 27.6613 3.18937 27.4533 3.42217 27.4533H12.7341C12.9669 27.4533 13.1562 27.6613 13.1562 27.9171C13.1562 28.1728 12.9669 28.3808 12.7341 28.3808Z" fill="#222222"/>
</svg>
