<?xml version="1.0" encoding="UTF-8"?>
<svg width="16px" height="16px" viewBox="0 0 16 16" version="1.1" xmlns="http://www.w3.org/2000/svg" xmlns:xlink="http://www.w3.org/1999/xlink">
    <!-- Generator: Sketch 52.2 (67145) - http://www.bohemiancoding.com/sketch -->
    <title>icon-tag</title>
    <desc>Created with Sketch.</desc>
    <g id="Page-1" stroke="none" stroke-width="1" fill="none" fill-rule="evenodd">
        <g id="Desktop" transform="translate(-273.000000, -687.000000)" fill="#000000">
            <g id="post" transform="translate(78.000000, 483.000000)">
                <g id="Group-6" transform="translate(0.000000, 198.000000)">
                    <g id="Group-5" transform="translate(193.000000, 0.000000)">
                        <g id="Tag,-label,-e-commerce" transform="translate(0.000000, 4.000000)">
                            <g id="icon-tag">
                                <rect id="Rectangle" opacity="0" x="0" y="0" width="20" height="20"></rect>
                                <path d="M16.6666,1.9998 L11.1248,1.9998 C10.7582,1.9998 10.2458,2.212 9.9868,2.471 L2.389,10.0696 C1.8702,10.588 1.8702,11.4368 2.389,11.9552 L8.0462,17.6116 C8.5638,18.1298 9.4126,18.1298 9.931,17.6116 L17.5288,10.015 C17.7876,9.7558 18,9.2428 18,8.877 L18,3.3332 C18,2.6008 17.3998,1.9998 16.6666,1.9998 Z M16.6666,8.9908 L8.9882,16.6688 L3.3318,11.0124 L7.3664,6.9772 C9.2642,5.08 10.348,3.996 10.9672,3.3332 L16.6666,3.3332 L16.6666,8.9908 Z M15.3334,6.0004 C15.3334,6.7362 14.7362,7.3338 13.9998,7.3338 C13.2634,7.3338 12.6664,6.7362 12.6664,6.0004 C12.6664,5.2634 13.2634,4.667 13.9998,4.667 C14.7362,4.667 15.3334,5.2636 15.3334,6.0004 Z" fill-rule="nonzero"></path>
                            </g>
                        </g>
                    </g>
                </g>
            </g>
        </g>
    </g>
</svg>