<?xml version="1.0" encoding="UTF-8"?>
<svg width="16px" height="16px" viewBox="0 0 16 16" version="1.1" xmlns="http://www.w3.org/2000/svg" xmlns:xlink="http://www.w3.org/1999/xlink">
    <!-- Generator: Sketch 52.2 (67145) - http://www.bohemiancoding.com/sketch -->
    <title>折叠 copy</title>
    <desc>Created with Sketch.</desc>
    <g id="Page-2" stroke="none" stroke-width="1" fill="none" fill-rule="evenodd">
        <g id="叉">
            <g id="Group">
                <rect id="Rectangle" fill="#000000" opacity="0" x="0" y="0" width="16" height="16"></rect>
                <path d="M11.824,12.688 L8,8.864 L4.184,12.68 C3.984,12.88 3.736,12.792 3.472,12.528 C3.208,12.264 3.112,12.016 3.32,11.816 L7.136,8 L3.312,4.176 C3.08,3.936 3.216,3.704 3.448,3.464 C3.712,3.2 3.928,3.064 4.176,3.304 L8,7.136 L11.824,3.32 C12.048,3.096 12.272,3.208 12.56,3.496 C12.8,3.736 12.928,3.944 12.688,4.184 L8.864,8 L12.68,11.816 C12.92,12.056 12.816,12.264 12.552,12.536 C12.288,12.808 12.024,12.888 11.824,12.688 Z" id="Path" fill="#2C2C2C"></path>
            </g>
        </g>
    </g>
</svg>